HIERARCHY
ROOT newVegas:Hips
{
	OFFSET 0.000000 96.479958 0.000000
	CHANNELS 6 Xposition Yposition Zposition Xrotation Yrotation Zrotation
	JOINT newVegas:Pelvis
	{
		OFFSET 0.000000 0.000000 0.000000
		CHANNELS 3 Xrotation Yrotation Zrotation
		JOINT newVegas:LeftUpLeg
		{
			OFFSET 18.735201 -5.666702 -4.541200
			CHANNELS 3 Xrotation Yrotation Zrotation
			JOINT newVegas:LeftLeg
			{
				OFFSET -0.021200 -31.938179 0.493100
				CHANNELS 3 Xrotation Yrotation Zrotation
				JOINT newVegas:LeftFoot
				{
					OFFSET 0.021200 -31.938179 -4.336299
					CHANNELS 3 Xrotation Yrotation Zrotation
					JOINT newVegas:LeftToeBase
					{
						OFFSET 0.943001 -26.722000 15.023500
						CHANNELS 3 Xrotation Yrotation Zrotation
						End Site
						{
							OFFSET 0.000000 30.670183 0.000000
						}
					}
				}
				JOINT newVegas:Left_PantLeg
				{
					OFFSET 0.663870 -9.044666 -1.108900
					CHANNELS 3 Xrotation Yrotation Zrotation
					End Site
					{
						OFFSET 1.415995 20.635357 0.000000
					}
				}
			}
		}
		JOINT newVegas:RightUpLeg
		{
			OFFSET -18.735201 -5.666702 -4.541200
			CHANNELS 3 Xrotation Yrotation Zrotation
			JOINT newVegas:RightLeg
			{
				OFFSET 0.018946 -31.938133 0.493100
				CHANNELS 3 Xrotation Yrotation Zrotation
				JOINT newVegas:RightFoot
				{
					OFFSET -0.018946 -31.938126 -4.336299
					CHANNELS 3 Xrotation Yrotation Zrotation
					JOINT newVegas:RightToeBase
					{
						OFFSET -0.943001 -26.722004 15.023500
						CHANNELS 3 Xrotation Yrotation Zrotation
						End Site
						{
							OFFSET 0.000000 30.670187 0.000000
						}
					}
				}
				JOINT newVegas:Right_PantLeg
				{
					OFFSET -0.661674 -9.044716 -1.108900
					CHANNELS 3 Xrotation Yrotation Zrotation
					End Site
					{
						OFFSET -1.415958 20.635269 0.000000
					}
				}
			}
		}
	}
	JOINT newVegas:Spine
	{
		OFFSET 0.000000 10.199997 -0.299500
		CHANNELS 3 Xrotation Yrotation Zrotation
		JOINT newVegas:Spine1
		{
			OFFSET 0.000000 11.900002 -1.516600
			CHANNELS 3 Xrotation Yrotation Zrotation
			JOINT newVegas:Spine2
			{
				OFFSET 0.000000 13.600006 -2.842500
				CHANNELS 3 Xrotation Yrotation Zrotation
				JOINT newVegas:Neck
				{
					OFFSET 0.000000 9.624100 -2.890100
					CHANNELS 3 Xrotation Yrotation Zrotation
					JOINT newVegas:Head
					{
						OFFSET 0.000000 14.068802 -1.351900
						CHANNELS 3 Xrotation Yrotation Zrotation
						JOINT newVegas:Hair_Back
						{
							OFFSET 0.000000 3.231903 -17.524799
							CHANNELS 3 Xrotation Yrotation Zrotation
							End Site
							{
								OFFSET 0.000000 19.849884 0.000000
							}
						}
						JOINT newVegas:Hair_Front
						{
							OFFSET 0.000000 31.260406 4.573800
							CHANNELS 3 Xrotation Yrotation Zrotation
							JOINT newVegas:Hair_Front1
							{
								OFFSET 0.000000 2.284103 11.993300
								CHANNELS 3 Xrotation Yrotation Zrotation
								JOINT newVegas:Hair_Front2
								{
									OFFSET 0.000000 2.284103 11.993300
									CHANNELS 3 Xrotation Yrotation Zrotation
									End Site
									{
										OFFSET 0.000000 12.208862 0.000000
									}
								}
							}
						}
						JOINT newVegas:Jowel
						{
							OFFSET 0.000000 -7.458206 6.864100
							CHANNELS 3 Xrotation Yrotation Zrotation
							End Site
							{
								OFFSET 0.000000 19.849884 0.000000
							}
						}
					}
				}
				JOINT newVegas:LeftShoulder
				{
					OFFSET 15.263000 10.923401 -0.547700
					CHANNELS 3 Xrotation Yrotation Zrotation
					JOINT newVegas:LeftArm
					{
						OFFSET 25.438599 -2.830597 -13.032500
						CHANNELS 3 Xrotation Yrotation Zrotation
						JOINT newVegas:LeftForeArm
						{
							OFFSET 29.960503 0.000000 0.000000
							CHANNELS 3 Xrotation Yrotation Zrotation
							JOINT newVegas:LeftHand
							{
								OFFSET 27.849251 0.000000 0.000000
								CHANNELS 3 Xrotation Yrotation Zrotation
								JOINT newVegas:LeftHandThumb1
								{
									OFFSET 4.487587 -3.305161 6.305391
									CHANNELS 3 Xrotation Yrotation Zrotation
									JOINT newVegas:LeftHandThumb2
									{
										OFFSET 5.480453 -3.164139 3.164143
										CHANNELS 3 Xrotation Yrotation Zrotation
										JOINT newVegas:LeftHandThumb3
										{
											OFFSET 5.159721 -2.978973 2.978967
											CHANNELS 3 Xrotation Yrotation Zrotation
											End Site
											{
												OFFSET 2.494507 5.926697 1.738678
											}
										}
									}
								}
								JOINT newVegas:LeftHandIndex1
								{
									OFFSET 18.578728 -0.527832 5.208049
									CHANNELS 3 Xrotation Yrotation Zrotation
									JOINT newVegas:LeftHandIndex2
									{
										OFFSET 3.192009 0.000000 0.000000
										CHANNELS 3 Xrotation Yrotation Zrotation
										JOINT newVegas:LeftHandIndex3
										{
											OFFSET 3.835129 0.000000 0.000000
											CHANNELS 3 Xrotation Yrotation Zrotation
											End Site
											{
												OFFSET -0.034599 3.816971 0.371180
											}
										}
									}
								}
								JOINT newVegas:LeftHandMiddle1
								{
									OFFSET 18.476105 0.000000 0.000000
									CHANNELS 3 Xrotation Yrotation Zrotation
									JOINT newVegas:LeftHandMiddle2
									{
										OFFSET 3.324875 0.000000 0.000000
										CHANNELS 3 Xrotation Yrotation Zrotation
										JOINT newVegas:LeftHandMiddle3
										{
											OFFSET 4.596550 0.000000 0.000000
											CHANNELS 3 Xrotation Yrotation Zrotation
											End Site
											{
												OFFSET 0.057701 4.578827 0.399218
											}
										}
									}
								}
								JOINT newVegas:LeftHandRing1
								{
									OFFSET 17.732719 0.121887 -4.201567
									CHANNELS 3 Xrotation Yrotation Zrotation
									JOINT newVegas:LeftHandRing2
									{
										OFFSET 2.733170 0.000000 0.000000
										CHANNELS 3 Xrotation Yrotation Zrotation
										JOINT newVegas:LeftHandRing3
										{
											OFFSET 3.178268 0.000000 0.000000
											CHANNELS 3 Xrotation Yrotation Zrotation
											End Site
											{
												OFFSET 0.119102 3.170624 0.185394
											}
										}
									}
								}
								JOINT newVegas:LeftHandPinky1
								{
									OFFSET 15.989624 -0.606689 -7.535461
									CHANNELS 3 Xrotation Yrotation Zrotation
									JOINT newVegas:LeftHandPinky2
									{
										OFFSET 2.538986 0.000000 0.000000
										CHANNELS 3 Xrotation Yrotation Zrotation
										JOINT newVegas:LeftHandPinky3
										{
											OFFSET 2.593102 0.000000 0.000000
											CHANNELS 3 Xrotation Yrotation Zrotation
											End Site
											{
												OFFSET -0.150902 2.584198 0.152708
											}
										}
									}
								}
							}
							JOINT newVegas:Left_Sleeve
							{
								OFFSET 0.267448 -0.649796 0.577675
								CHANNELS 3 Xrotation Yrotation Zrotation
								End Site
								{
									OFFSET 0.000000 15.991241 0.000000
								}
							}
							JOINT newVegas:Left_CapeC
							{
								OFFSET 15.715958 -8.608795 -6.935905
								CHANNELS 3 Xrotation Yrotation Zrotation
								JOINT newVegas:Left_CapeC1
								{
									OFFSET 0.000000 -8.688499 0.000000
									CHANNELS 3 Xrotation Yrotation Zrotation
									End Site
									{
										OFFSET 0.000000 8.688499 0.000000
									}
								}
							}
						}
						JOINT newVegas:Left_CapeB
						{
							OFFSET 26.118385 -8.608795 -7.079235
							CHANNELS 3 Xrotation Yrotation Zrotation
							JOINT newVegas:Left_CapeB1
							{
								OFFSET 0.000000 -8.688499 0.000000
								CHANNELS 3 Xrotation Yrotation Zrotation
								End Site
								{
									OFFSET 0.000000 8.688499 0.000000
								}
							}
						}
						JOINT newVegas:Left_CapeA
						{
							OFFSET 5.115639 -8.608795 -10.395809
							CHANNELS 3 Xrotation Yrotation Zrotation
							JOINT newVegas:Left_CapeA1
							{
								OFFSET 0.000000 -8.688499 0.000000
								CHANNELS 3 Xrotation Yrotation Zrotation
								End Site
								{
									OFFSET 0.000000 8.688499 0.000000
								}
							}
						}
					}
				}
				JOINT newVegas:RightShoulder
				{
					OFFSET -15.263000 10.923401 -0.547700
					CHANNELS 3 Xrotation Yrotation Zrotation
					JOINT newVegas:RightArm
					{
						OFFSET -25.438599 -2.830597 -13.032500
						CHANNELS 3 Xrotation Yrotation Zrotation
						JOINT newVegas:RightForeArm
						{
							OFFSET -29.960503 0.000000 0.000000
							CHANNELS 3 Xrotation Yrotation Zrotation
							JOINT newVegas:RightHand
							{
								OFFSET -27.849251 0.000000 0.000000
								CHANNELS 3 Xrotation Yrotation Zrotation
								JOINT newVegas:RightHandThumb1
								{
									OFFSET -4.487587 -3.305161 6.305391
									CHANNELS 3 Xrotation Yrotation Zrotation
									JOINT newVegas:RightHandThumb2
									{
										OFFSET -5.480453 -3.164139 3.164143
										CHANNELS 3 Xrotation Yrotation Zrotation
										JOINT newVegas:RightHandThumb3
										{
											OFFSET -5.159721 -2.978973 2.978967
											CHANNELS 3 Xrotation Yrotation Zrotation
											End Site
											{
												OFFSET -2.494507 5.926697 1.738678
											}
										}
									}
								}
								JOINT newVegas:RightHandIndex1
								{
									OFFSET -18.578728 -0.527832 5.208049
									CHANNELS 3 Xrotation Yrotation Zrotation
									JOINT newVegas:RightHandIndex2
									{
										OFFSET -3.192009 0.000000 0.000000
										CHANNELS 3 Xrotation Yrotation Zrotation
										JOINT newVegas:RightHandIndex3
										{
											OFFSET -3.835129 0.000000 0.000000
											CHANNELS 3 Xrotation Yrotation Zrotation
											End Site
											{
												OFFSET 0.034599 3.816971 0.371180
											}
										}
									}
								}
								JOINT newVegas:RightHandMiddle1
								{
									OFFSET -18.476105 0.000000 0.000000
									CHANNELS 3 Xrotation Yrotation Zrotation
									JOINT newVegas:RightHandMiddle2
									{
										OFFSET -3.324875 0.000000 0.000000
										CHANNELS 3 Xrotation Yrotation Zrotation
										JOINT newVegas:RightHandMiddle3
										{
											OFFSET -4.596550 0.000000 0.000000
											CHANNELS 3 Xrotation Yrotation Zrotation
											End Site
											{
												OFFSET -0.057701 4.578827 0.399218
											}
										}
									}
								}
								JOINT newVegas:RightHandRing1
								{
									OFFSET -17.732719 0.121887 -4.201567
									CHANNELS 3 Xrotation Yrotation Zrotation
									JOINT newVegas:RightHandRing2
									{
										OFFSET -2.733170 0.000000 0.000000
										CHANNELS 3 Xrotation Yrotation Zrotation
										JOINT newVegas:RightHandRing3
										{
											OFFSET -3.178268 0.000000 0.000000
											CHANNELS 3 Xrotation Yrotation Zrotation
											End Site
											{
												OFFSET -0.119102 3.170624 0.185394
											}
										}
									}
								}
								JOINT newVegas:RightHandPinky1
								{
									OFFSET -15.989624 -0.606689 -7.535461
									CHANNELS 3 Xrotation Yrotation Zrotation
									JOINT newVegas:RightHandPinky2
									{
										OFFSET -2.538986 0.000000 0.000000
										CHANNELS 3 Xrotation Yrotation Zrotation
										JOINT newVegas:RightHandPinky3
										{
											OFFSET -2.593102 0.000000 0.000000
											CHANNELS 3 Xrotation Yrotation Zrotation
											End Site
											{
												OFFSET 0.150902 2.584198 0.152708
											}
										}
									}
								}
							}
							JOINT newVegas:Right_CapeC
							{
								OFFSET -15.715958 -8.608795 -6.935905
								CHANNELS 3 Xrotation Yrotation Zrotation
								JOINT newVegas:Right_CapeC1
								{
									OFFSET 0.000000 -8.688499 0.000000
									CHANNELS 3 Xrotation Yrotation Zrotation
									End Site
									{
										OFFSET 0.000000 8.688499 0.000000
									}
								}
							}
							JOINT newVegas:Right_Sleeve
							{
								OFFSET -0.267448 -0.649994 0.577675
								CHANNELS 3 Xrotation Yrotation Zrotation
								End Site
								{
									OFFSET 0.000000 15.991302 0.000000
								}
							}
						}
						JOINT newVegas:Right_CapeA
						{
							OFFSET -5.115540 -8.608795 -10.395824
							CHANNELS 3 Xrotation Yrotation Zrotation
							JOINT newVegas:Right_CapeA1
							{
								OFFSET 0.000000 -8.688499 0.000000
								CHANNELS 3 Xrotation Yrotation Zrotation
								End Site
								{
									OFFSET 0.000000 8.688499 0.000000
								}
							}
						}
						JOINT newVegas:Right_CapeB
						{
							OFFSET -26.118187 -8.608795 -7.079266
							CHANNELS 3 Xrotation Yrotation Zrotation
							JOINT newVegas:Right_CapeB1
							{
								OFFSET 0.000000 -8.688499 0.000000
								CHANNELS 3 Xrotation Yrotation Zrotation
								End Site
								{
									OFFSET 0.000000 8.688499 0.000000
								}
							}
						}
					}
				}
				JOINT newVegas:Left_Collar
				{
					OFFSET 18.625099 8.655502 8.828100
					CHANNELS 3 Xrotation Yrotation Zrotation
					JOINT newVegas:Left_Collar1
					{
						OFFSET 14.783401 10.540405 -1.259500
						CHANNELS 3 Xrotation Yrotation Zrotation
						End Site
						{
							OFFSET 0.000000 18.199875 0.000000
						}
					}
				}
				JOINT newVegas:Collar_Back
				{
					OFFSET 0.000000 15.630707 -20.132601
					CHANNELS 3 Xrotation Yrotation Zrotation
					End Site
					{
						OFFSET 0.000000 22.523010 0.000000
					}
				}
				JOINT newVegas:Left_Peck
				{
					OFFSET 17.239599 -5.132599 25.482599
					CHANNELS 3 Xrotation Yrotation Zrotation
					End Site
					{
						OFFSET 0.000000 22.523010 0.000000
					}
				}
				JOINT newVegas:Right_Peck
				{
					OFFSET -17.239599 -5.132202 25.482599
					CHANNELS 3 Xrotation Yrotation Zrotation
					End Site
					{
						OFFSET 0.000000 22.523010 0.000000
					}
				}
				JOINT newVegas:Right_Collar
				{
					OFFSET -18.625099 8.655792 8.828100
					CHANNELS 3 Xrotation Yrotation Zrotation
					JOINT newVegas:Right_Collar1
					{
						OFFSET -14.783401 10.539993 -1.259500
						CHANNELS 3 Xrotation Yrotation Zrotation
						End Site
						{
							OFFSET 0.000000 18.199631 0.000000
						}
					}
				}
			}
		}
		JOINT newVegas:Belly
		{
			OFFSET 0.000000 -6.540398 9.014299
			CHANNELS 3 Xrotation Yrotation Zrotation
			End Site
			{
				OFFSET 0.000000 11.566666 0.000000
			}
		}
	}
	JOINT newVegas:ElvisFacialAnim_Joint
	{
		OFFSET 1.000000 -95.330101 -8.825800
		CHANNELS 3 Xrotation Yrotation Zrotation
		End Site
		{
			OFFSET 0.000000 35.315800 0.000000
		}
	}
}
MOTION
Frames: 4
Frame Time: 0.033333
-0.453649 89.050247 -19.920261 8.183976 -26.927650 3.498984 0.000000 -0.000001 -0.000000 -38.019514 -1.836031 13.033551 42.014635 15.673017 5.003427 -6.886741 -3.201473 -19.461787 -0.000000 0.000001 0.000000 -0.000000 0.000000 0.000001 -5.123466 -4.925018 -30.845592 36.225247 10.997667 10.638207 8.230229 -14.877293 16.692880 0.000004 -0.000004 0.000000 -0.000002 0.000001 0.000001 1.334074 1.095661 -2.225244 0.153071 0.010409 0.155591 0.153068 0.010267 0.152022 0.595210 1.290970 -1.433680 0.595211 1.290968 -1.433680 0.000001 0.000002 0.000000 0.595212 1.290969 -1.433681 0.595281 1.290981 -1.433684 -0.000000 0.000001 -0.000000 0.000001 0.000002 0.000000 -0.101528 -4.354513 -32.283726 -0.444302 2.029492 -24.792528 57.041819 -47.126038 49.274037 -5.770263 0.940268 21.043009 -0.125003 -8.355499 -7.023793 18.962528 49.323815 -18.182775 0.000002 0.000002 0.000001 0.429450 7.864902 -86.264743 7.726819 5.543233 -108.728675 0.000003 0.000000 0.000001 2.817209 7.929600 -84.442626 7.726848 5.543194 -108.728928 0.000000 -0.000000 -0.000001 4.469927 8.018196 -75.639284 7.726832 5.543213 -108.728689 -0.000001 -0.000001 -0.000001 4.788419 8.089656 -78.839289 7.726807 5.543218 -108.728695 0.000000 -0.000003 0.000001 0.000000 -0.000001 0.000003 0.000000 -0.000001 0.000003 -0.000000 -0.000001 0.000003 -0.000001 0.000000 0.000000 -0.000000 -0.000000 -0.000003 -0.000001 0.000000 0.000000 -0.000001 0.000001 -0.000000 -2.080474 19.640206 24.657758 20.205639 7.355060 42.021629 23.754720 58.674228 -29.186655 -0.049455 16.020948 -32.757669 -1.371938 10.336649 7.653002 19.016227 -51.105719 18.076108 -0.000003 -0.000001 -0.000000 -0.759140 -6.528624 85.523497 6.148477 -4.412429 108.695330 0.000002 0.000000 -0.000000 1.664954 -6.628106 83.700710 6.148479 -4.412404 108.695576 0.000001 -0.000002 -0.000001 3.497356 -6.772424 74.917674 6.148481 -4.412415 108.695350 -0.000000 -0.000001 0.000003 3.749562 -6.832517 78.108971 6.148456 -4.412423 108.695357 0.000000 -0.000004 0.000003 0.000000 0.000004 -0.000002 0.000001 0.000001 -0.000001 0.000000 0.000003 -0.000001 -0.000001 0.000001 -0.000000 -0.000001 0.000000 -0.000001 -0.000001 0.000001 -0.000000 -0.000001 -0.000000 -0.000000 0.000001 -0.000003 0.000000 0.000001 -0.000003 0.000000 0.000001 -0.000003 0.000000 0.000001 -0.000003 0.000000 0.000001 -0.000003 0.000000 0.000001 -0.000003 0.000000 0.000001 -0.000003 0.000000 -0.000000 0.000002 -0.000000 0.000000 -0.000001 -0.000000 
-0.074263 87.866776 -18.855652 7.368216 -27.483534 3.769984 -0.000000 0.000000 -0.000000 -36.997636 -0.228930 10.793731 44.223986 16.456342 5.601390 -11.005437 -2.196998 -17.506956 0.000000 -0.000001 0.000000 -0.000000 0.000001 0.000001 1.382808 -7.815038 -31.619241 30.086980 8.302453 9.059111 6.133324 -15.098143 18.460535 0.000001 -0.000002 0.000000 -0.000000 -0.000001 -0.000001 0.615617 0.848999 -2.380290 0.079143 0.015495 0.151187 0.079144 0.015425 0.149317 0.560067 1.391855 -1.104430 0.560064 1.391857 -1.104430 -0.000000 -0.000001 -0.000000 0.560067 1.391852 -1.104430 0.560142 1.391861 -1.104437 0.000001 0.000000 0.000000 -0.000000 -0.000001 0.000000 1.051451 -0.613042 -33.162139 3.309716 12.453448 -29.717327 56.769790 -47.939397 49.269122 -5.785685 1.050609 20.914645 -0.125014 -8.355449 -7.023783 18.962541 49.323794 -18.182785 0.000005 -0.000005 0.000002 0.429457 7.864919 -86.264722 7.726846 5.543221 -108.728702 -0.000002 0.000000 0.000005 2.817178 7.929616 -84.442640 7.726862 5.543204 -108.728914 0.000001 0.000001 0.000000 4.469926 8.018208 -75.639298 7.726852 5.543212 -108.728695 -0.000001 0.000001 0.000001 4.788408 8.089657 -78.839296 7.726836 5.543215 -108.728689 0.000001 -0.000008 -0.000001 0.000000 0.000000 0.000000 0.000000 0.000000 0.000000 0.000000 0.000000 0.000000 0.000002 0.000001 0.000001 0.000002 0.000000 0.000000 0.000002 0.000001 0.000001 0.000001 -0.000000 0.000001 -1.130314 15.652990 24.043335 33.615408 6.411809 47.758172 26.951360 62.243261 -35.530719 -0.016868 17.278188 -30.887891 -1.371945 10.336646 7.653000 19.016264 -51.105729 18.076121 -0.000002 -0.000000 -0.000000 -0.759141 -6.528649 85.523490 6.148488 -4.412429 108.695357 0.000001 0.000000 -0.000001 1.664946 -6.628125 83.700724 6.148493 -4.412420 108.695562 -0.000004 0.000001 -0.000003 3.497343 -6.772428 74.917688 6.148496 -4.412421 108.695344 0.000003 -0.000001 0.000002 3.749561 -6.832530 78.108944 6.148459 -4.412402 108.695344 -0.000001 0.000002 -0.000001 0.000000 0.000002 -0.000001 0.000000 0.000001 0.000000 0.000000 0.000001 -0.000000 0.000001 -0.000001 0.000001 0.000001 0.000000 0.000001 0.000001 -0.000001 0.000001 0.000001 0.000000 0.000002 -0.000001 -0.000000 -0.000000 -0.000001 -0.000000 -0.000000 -0.000001 -0.000000 -0.000000 -0.000001 -0.000000 -0.000000 -0.000001 -0.000000 -0.000000 -0.000001 -0.000000 -0.000000 -0.000001 -0.000000 -0.000000 -0.000000 -0.000001 -0.000000 -0.000000 0.000000 -0.000000 
0.519948 87.463417 -17.706306 6.716755 -26.883792 3.656502 -0.000000 -0.000001 0.000000 -37.303840 0.208176 9.773928 47.131836 15.363775 4.984351 -13.248738 -1.592975 -16.105537 -0.000000 0.000000 0.000000 -0.000002 0.000000 0.000002 3.292708 -9.104869 -29.966570 29.343681 6.946719 8.634667 2.906044 -15.451348 14.599244 -0.000000 -0.000003 0.000000 -0.000000 -0.000001 -0.000003 0.362376 0.672466 -2.495323 0.066849 0.021377 0.143194 0.066827 0.021300 0.141733 0.393092 1.436729 -0.732882 0.393091 1.436714 -0.732879 0.000000 -0.000001 0.000000 0.393097 1.436715 -0.732882 0.393169 1.436720 -0.732885 -0.000001 -0.000003 0.000000 0.000000 -0.000001 0.000000 1.456358 1.016527 -32.128728 6.473744 19.844428 -34.563715 55.844525 -50.253021 49.440970 -5.806002 1.172748 20.160989 -0.125010 -8.355463 -7.023777 18.962538 49.323791 -18.182797 -0.000000 -0.000000 -0.000003 0.429459 7.864901 -86.264736 7.726839 5.543227 -108.728695 -0.000000 -0.000001 0.000001 2.817204 7.929611 -84.442633 7.726849 5.543199 -108.728928 -0.000002 0.000002 0.000001 4.469931 8.018199 -75.639298 7.726850 5.543201 -108.728689 -0.000002 0.000003 -0.000003 4.788416 8.089662 -78.839282 7.726824 5.543201 -108.728723 0.000001 -0.000007 -0.000001 -0.000001 0.000001 0.000001 -0.000001 0.000001 0.000001 -0.000002 0.000001 0.000001 0.000000 -0.000002 -0.000001 0.000001 -0.000003 -0.000002 0.000000 -0.000002 -0.000001 0.000001 -0.000003 -0.000001 -0.500875 12.730275 22.607101 42.127394 5.409900 53.365392 28.989864 65.055086 -40.215000 0.136692 18.717090 -29.712061 -1.371937 10.336639 7.653003 19.016227 -51.105716 18.076094 -0.000003 -0.000002 -0.000001 -0.759146 -6.528644 85.523517 6.148493 -4.412436 108.695330 0.000000 0.000001 0.000001 1.664960 -6.628095 83.700717 6.148477 -4.412400 108.695589 0.000001 -0.000001 -0.000000 3.497363 -6.772431 74.917674 6.148494 -4.412408 108.695337 -0.000002 -0.000001 -0.000003 3.749556 -6.832517 78.108971 6.148465 -4.412410 108.695344 -0.000000 0.000007 0.000001 -0.000001 0.000000 0.000001 -0.000002 -0.000001 0.000002 -0.000001 0.000000 -0.000001 -0.000001 0.000000 -0.000001 -0.000001 0.000001 -0.000000 -0.000001 0.000000 -0.000001 -0.000001 0.000001 -0.000000 -0.000000 0.000003 -0.000000 -0.000000 0.000003 -0.000000 -0.000000 0.000003 -0.000000 -0.000000 0.000003 -0.000000 -0.000000 0.000003 -0.000000 -0.000000 0.000003 -0.000000 -0.000000 0.000003 -0.000000 0.000000 -0.000000 -0.000000 -0.000000 -0.000001 0.000000 
1.067847 87.878365 -17.055588 6.398877 -25.305048 3.060751 -0.000000 0.000001 -0.000000 -37.364782 -0.026985 10.230675 47.195859 12.297567 3.189253 -13.404531 -1.346061 -13.782757 0.000000 0.000000 0.000000 -0.000001 0.000002 0.000000 -0.982257 -7.119126 -28.208437 36.250696 13.446490 10.329632 0.335318 -15.514592 11.811510 0.000005 0.000003 0.000001 0.000003 -0.000002 -0.000000 0.641268 0.616758 -2.606278 0.133090 0.032725 0.146160 0.133015 0.032683 0.143486 0.097181 1.424619 -0.383525 0.097167 1.424615 -0.383542 0.000000 0.000001 0.000000 0.097115 1.424610 -0.383521 0.097329 1.424552 -0.383516 -0.000000 -0.000002 0.000000 0.000000 0.000001 0.000000 1.357621 1.038695 -30.249945 8.461412 22.381499 -37.572707 55.744661 -53.650060 51.382731 -5.799826 1.096381 19.309607 -0.125005 -8.355490 -7.023799 18.962555 49.323808 -18.182795 0.000005 -0.000003 -0.000005 0.429453 7.864897 -86.264770 7.726853 5.543226 -108.728695 -0.000000 -0.000001 -0.000001 2.817180 7.929580 -84.442626 7.726844 5.543206 -108.728934 0.000001 -0.000002 -0.000004 4.469923 8.018201 -75.639298 7.726863 5.543198 -108.728709 -0.000001 0.000001 -0.000001 4.788413 8.089656 -78.839275 7.726827 5.543196 -108.728716 0.000002 -0.000007 -0.000004 -0.000000 0.000001 0.000001 -0.000000 0.000001 0.000001 -0.000001 0.000001 0.000001 -0.000002 -0.000003 0.000001 -0.000002 -0.000003 0.000000 -0.000002 -0.000003 0.000001 -0.000002 -0.000003 0.000001 -0.266740 11.300401 21.584585 44.473257 3.149805 56.861557 29.524681 67.721968 -42.594146 0.367312 20.003256 -29.267268 -1.371947 10.336644 7.653003 19.016227 -51.105709 18.076080 -0.000000 0.000000 0.000001 -0.759141 -6.528633 85.523517 6.148477 -4.412436 108.695316 0.000000 0.000002 0.000002 1.664954 -6.628102 83.700717 6.148491 -4.412414 108.695569 0.000001 -0.000003 -0.000003 3.497356 -6.772409 74.917688 6.148501 -4.412411 108.695337 0.000003 -0.000001 0.000001 3.749556 -6.832515 78.108978 6.148459 -4.412418 108.695350 -0.000003 0.000002 0.000000 0.000002 0.000001 -0.000001 0.000001 -0.000003 0.000000 0.000002 0.000001 -0.000000 -0.000000 0.000003 0.000000 -0.000000 0.000003 -0.000000 -0.000000 0.000003 0.000000 -0.000000 0.000003 0.000000 -0.000000 -0.000002 0.000000 -0.000000 -0.000002 0.000000 -0.000000 -0.000002 0.000000 -0.000000 -0.000002 0.000000 -0.000000 -0.000002 0.000000 -0.000000 -0.000002 0.000000 -0.000000 -0.000002 0.000000 -0.000000 0.000001 -0.000000 -0.000000 0.000001 -0.000000 
